<svg xmlns="http://www.w3.org/2000/svg" width="430" height="430" style="width:100%;height:100%;transform:translate3d(0,0,0)" viewBox="0 0 430 430"><defs><clipPath id="a"><path d="M0 0h430v430H0z"/></clipPath><clipPath id="k"><path d="M0 0h430v430H0z"/></clipPath><clipPath id="l"><path d="M0 0h430v430H0z"/></clipPath><clipPath id="b"><path d="M0 0h430v430H0z"/></clipPath><clipPath id="i"><path d="M0 0h430v430H0z"/></clipPath><clipPath id="j"><path d="M0 0h430v430H0z"/></clipPath><clipPath id="g"><path d="M0 0h430v430H0z"/></clipPath><clipPath id="h"><path d="M0 0h430v430H0z"/></clipPath><clipPath id="e"><path d="M0 0h430v430H0z"/></clipPath><clipPath id="f"><path d="M0 0h430v430H0z"/></clipPath><clipPath id="c"><path d="M0 0h430v430H0z"/></clipPath><clipPath id="d"><path d="M0 0h430v430H0z"/></clipPath></defs><g clip-path="url(#a)"><g clip-path="url(#b)" style="display:none"><g clip-path="url(#c)" style="display:none"><g clip-path="url(#d)" style="display:none"><path fill="none" class="primary" style="display:none"/><path fill="none" class="secondary" style="display:none"/><path fill="none" class="primary" style="display:none"/><path fill="none" class="senary" style="display:none"/><path fill="none" class="primary" style="display:none"/><path fill="none" class="secondary" style="display:none"/><path fill="none" class="primary" style="display:none"/><path fill="none" class="primary" style="display:none"/><g style="display:none"><path class="tertiary"/><path fill="none" class="primary"/></g></g><path class="secondary" style="display:none"/><path class="tertiary" style="display:none"/><path class="quaternary" style="display:none"/><g style="display:none"><path class="septenary"/><path class="quinary"/></g><path class="quaternary" style="display:none"/></g><g clip-path="url(#e)" style="display:none"><g clip-path="url(#f)" style="display:none"><path fill="none" class="primary" style="display:none"/><path fill="none" class="secondary" style="display:none"/><path fill="none" class="primary" style="display:none"/><path fill="none" class="senary" style="display:none"/><path fill="none" class="primary" style="display:none"/><path fill="none" class="secondary" style="display:none"/><path fill="none" class="primary" style="display:none"/><path fill="none" class="primary" style="display:none"/><g style="display:none"><path class="tertiary"/><path fill="none" class="primary"/></g></g><path class="secondary" style="display:none"/><path class="tertiary" style="display:none"/><path class="quaternary" style="display:none"/><g style="display:none"><path class="septenary"/><path class="quinary"/></g><path class="quaternary" style="display:none"/></g><g clip-path="url(#g)" style="display:none"><g clip-path="url(#h)" style="display:none"><path fill="none" class="primary" style="display:none"/><path fill="none" class="secondary" style="display:none"/><path fill="none" class="primary" style="display:none"/><path fill="none" class="senary" style="display:none"/><path fill="none" class="primary" style="display:none"/><path fill="none" class="secondary" style="display:none"/><path fill="none" class="primary" style="display:none"/><path fill="none" class="primary" style="display:none"/><g style="display:none"><path class="tertiary"/><path fill="none" class="primary"/></g></g><path class="secondary" style="display:none"/><path class="tertiary" style="display:none"/><path class="quaternary" style="display:none"/><g style="display:none"><path class="septenary"/><path class="quinary"/></g><path class="quaternary" style="display:none"/></g><g clip-path="url(#i)" style="display:none"><g clip-path="url(#j)" style="display:none"><path fill="none" class="primary" style="display:none"/><path fill="none" class="secondary" style="display:none"/><path fill="none" class="primary" style="display:none"/><path fill="none" class="senary" style="display:none"/><path fill="none" class="primary" style="display:none"/><path fill="none" class="secondary" style="display:none"/><path fill="none" class="primary" style="display:none"/><path fill="none" class="primary" style="display:none"/><g style="display:none"><path class="tertiary"/><path fill="none" class="primary"/></g></g><path class="secondary" style="display:none"/><path class="tertiary" style="display:none"/><path class="quaternary" style="display:none"/><g style="display:none"><path class="septenary"/><path class="quinary"/></g><path class="quaternary" style="display:none"/></g></g><g clip-path="url(#k)" style="display:block"><g clip-path="url(#l)" style="display:block"><path fill="none" stroke="#393346" stroke-linecap="round" stroke-linejoin="round" stroke-width="7" d="M-69.749 0c0 38.521 31.228 69.749 69.749 69.749S69.749 38.521 69.749 0 38.521-69.749 0-69.749-69.749-38.521-69.749 0" class="primary" style="display:block" transform="translate(103.087 325.811)"/><path fill="none" stroke="#636D78" stroke-linecap="round" stroke-linejoin="round" stroke-width="7" d="M-21.795-21.795c0 24.073 19.508 43.59 43.59 43.59" class="secondary" style="display:block" transform="translate(81.296 347.605)"/><path fill="none" stroke="#393346" stroke-linecap="round" stroke-linejoin="round" stroke-width="7" d="M29.193 73.942-29.193-73.942" class="primary" style="display:block" transform="translate(164.751 251.724)"/><path fill="none" stroke="#2F80E8" stroke-linecap="round" stroke-linejoin="round" stroke-width="7" d="M-3.245 57.66h-90.857l53.51-97.419L94.102-57.66z" class="senary" style="display:block" transform="translate(197.189 268.006)"/><path fill="none" stroke="#393346" stroke-linecap="round" stroke-linejoin="round" stroke-width="7" d="M-69.749 0c0 38.521 31.228 69.749 69.749 69.749S69.749 38.521 69.749 0 38.521-69.749 0-69.749-69.749-38.521-69.749 0" class="primary" style="display:block" transform="translate(332.057 325.811)"/><path fill="none" stroke="#636D78" stroke-linecap="round" stroke-linejoin="round" stroke-width="7" d="M-21.795-21.795c0 24.073 19.508 43.59 43.59 43.59" class="secondary" style="display:block" transform="translate(310.295 347.605)"/><path fill="none" stroke="#393346" stroke-linecap="round" stroke-linejoin="round" stroke-width="7" d="M-19.16-11.992s34.587-.081 34.654 0c8.667 10.435-.75 24.02-.75 24.02" class="primary" style="display:block" transform="translate(304.173 204.556)"/><path fill="none" stroke="#393346" stroke-linecap="round" stroke-linejoin="round" stroke-width="7" d="M23.522 66.623-23.522-66.623" class="primary" style="display:block" transform="translate(308.535 259.187)"/><g style="display:block"><path fill="#E9E3EC" d="M150.206 177.782h-38.67" class="tertiary"/><path fill="none" stroke="#393346" stroke-linecap="round" stroke-linejoin="round" stroke-width="7" d="M150.206 177.782h-38.67" class="primary"/></g></g><path fill="#636D78" d="m6.083-45.564 27.97 38.836c7.605 7.474 8.092 19.572 1.114 27.634L6.171 65.747s10.333 25.749-2 31.166l-38.49-33.144L-.874 8.644l-33.977-49.071c-3.311-4.785-11.159-23.148-.161-42.077 4.474-7.7 10.74-12.118 14.732-14.409" class="secondary" style="display:block" transform="translate(186.162 212.337)"/><path fill="#E9E3EC" d="M6.171 65.747s10.333 25.749-2 31.166l-38.49-33.144 10.46-17.24" class="tertiary" style="display:block" transform="translate(186.162 212.337)"/><path fill="#66A0ED" d="M24.328-42.732c9.812.622 19.061 6.259 23.865 15.656a28.75 28.75 0 0 1 1.764 22.004C47.686 1.95 42.743 8.1 35.649 11.727l-60.755 31.06-26.256-51.358 60.755-31.06c8.361-3.739 14.604-3.134 14.935-3.101" class="quaternary" style="display:block" transform="translate(217.21 124.002)"/><g style="display:block"><path fill="#F5C5BB" d="m268.212 82.408 11.338 16.249c2.046 2.933 6.12 3.658 9.053 1.612l26.46-18.461c9.806-6.842 12.231-20.463 5.389-30.269l-2.619-3.753c-6.842-9.806-20.463-12.231-30.269-5.389l-13.963 9.742c-9.806 6.842-12.231 20.463-5.389 30.269" class="septenary"/><path fill="#AC6836" d="M322.098 79.85c-.76 1.057-2.341 1.035-3.041-.063l-9.908-15.528a7.67 7.67 0 0 0-10.595-2.341 7.6 7.6 0 0 1-5.781 1.018 7.6 7.6 0 0 1-4.814-3.359l-3.761-5.893c-2.027-3.177-6.248-4.11-9.417-2.088l-1.18-1.85a2.174 2.174 0 0 1 .663-3.002l12.209-7.79c10.083-6.434 23.597-3.448 30.031 6.635l6.293 9.863c4.913 7.699 4.334 17.391-.699 24.398" class="quinary"/></g><path fill="#66A0ED" d="M-7.187-50.637 3.815-4.956l33.862 44.604S25.664 58.504 7.584 46.815L-22.427 7.21l-15.25-55.848" class="quaternary" style="display:block" transform="translate(274.706 152.901)"/></g></g></svg>